SplineFontDB: 3.0
FontName: office365icons
FullName: office365icons
FamilyName: office365icons
Weight: Book
Copyright: Copyright (C) 2017 by original authors @ fontello.com
Version: 1.0
ItalicAngle: 0
UnderlinePosition: -237
UnderlineWidth: 119
Ascent: 2048
Descent: 0
InvalidEm: 0
sfntRevision: 0x00010000
woffMajor: 1
woffMinor: 0
LayerCount: 2
Layer: 0 1 "Back" 1
Layer: 1 1 "Fore" 0
XUID: [1021 623 1472866181 18047]
StyleMap: 0x0040
FSType: 8
OS2Version: 1
OS2_WeightWidthSlopeOnly: 0
OS2_UseTypoMetrics: 0
CreationTime: 1508362285
ModificationTime: 1510612923
PfmFamily: 17
TTFWeight: 400
TTFWidth: 5
LineGap: 184
VLineGap: 0
Panose: 2 0 5 3 0 0 0 0 0 0
OS2TypoAscent: 1741
OS2TypoAOffset: 0
OS2TypoDescent: -307
OS2TypoDOffset: 0
OS2TypoLinegap: 184
OS2WinAscent: 1653
OS2WinAOffset: 0
OS2WinDescent: 219
OS2WinDOffset: 0
HheadAscent: 1741
HheadAOffset: 0
HheadDescent: -307
HheadDOffset: 0
OS2SubXSize: 1298
OS2SubYSize: 1434
OS2SubXOff: 0
OS2SubYOff: 287
OS2SupXSize: 1298
OS2SupYSize: 1434
OS2SupXOff: 0
OS2SupYOff: 983
OS2StrikeYSize: 100
OS2StrikeYPos: 528
OS2Vendor: 'PfEd'
OS2CodePages: 00000001.00000000
OS2UnicodeRanges: 00000000.00000000.00000000.00000000
MarkAttachClasses: 1
DEI: 91125
TtTable: prep
MPPEM
PUSHW_1
 200
GT
IF
PUSHB_2
 1
 1
INSTCTRL
EIF
PUSHW_2
 2048
 2048
MUL
DUP
PUSHB_1
 1
SWAP
WCVTP
PUSHB_1
 3
SWAP
WCVTF
PUSHB_3
 4
 40
 9
RCVT
GT
WCVTP
PUSHB_3
 10
 2
 7
LOOPCALL
PUSHB_2
 6
 1
WCVTP
PUSHB_2
 36
 1
GETINFO
LTEQ
IF
PUSHB_1
 64
GETINFO
IF
PUSHB_2
 6
 3
WCVTP
PUSHB_2
 38
 1
GETINFO
LTEQ
IF
PUSHW_1
 1024
GETINFO
IF
PUSHB_2
 6
 1
WCVTP
EIF
EIF
EIF
EIF
PUSHW_1
 511
SCANCTRL
PUSHB_1
 4
SCANTYPE
PUSHB_2
 5
 0
WCVTP
EndTTInstrs
TtTable: fpgm
PUSHB_1
 0
FDEF
PUSHB_1
 32
ADD
FLOOR
ENDF
PUSHB_1
 1
FDEF
DUP
ABS
DUP
PUSHB_1
 192
LT
PUSHB_1
 4
MINDEX
AND
PUSHB_1
 4
RCVT
OR
IF
POP
SWAP
POP
ELSE
ROLL
IF
DUP
PUSHB_1
 80
LT
IF
POP
PUSHB_1
 64
EIF
ELSE
DUP
PUSHB_1
 56
LT
IF
POP
PUSHB_1
 56
EIF
EIF
DUP
PUSHB_1
 10
RCVT
SUB
ABS
PUSHB_1
 40
LT
IF
POP
PUSHB_1
 10
RCVT
DUP

StartChar: question
Encoding: 57350 57350 1
Width: 2048
Flags: W
LayerCount: 2
Fore
SplineSet
483 1237 m 0,0,1
 549 1397 549 1397 681 1488 c 128,-1,2
 813 1579 813 1579 982 1587 c 128,-1,3
 1151 1595 1151 1595 1307.5 1537 c 128,-1,4
 1464 1479 1464 1479 1554 1329 c 1,5,6
 1634 1175 1634 1175 1597.5 1016.5 c 128,-1,7
 1561 858 1561 858 1432 748 c 1,8,-1
 1300 651 l 2,9,10
 1232 604 1232 604 1196 528 c 0,11,12
 1180 489 1180 489 1178 447.5 c 128,-1,13
 1176 406 1176 406 1176 362 c 1,14,-1
 856 362 l 1,15,-1
 856 471 l 2,16,17
 862 543 862 543 884.5 610.5 c 128,-1,18
 907 678 907 678 952 737 c 0,19,20
 1005 796 1005 796 1067.5 843.5 c 128,-1,21
 1130 891 1130 891 1182 948 c 0,22,23
 1280 1083 1280 1083 1210.5 1206 c 128,-1,24
 1141 1329 1141 1329 973 1305 c 0,25,26
 907 1289 907 1289 862 1238.5 c 128,-1,27
 817 1188 817 1188 801 1122 c 2,28,-1
 793 1059 l 2,29,30
 787 1010 787 1010 788 1004 c 2,31,-1
 440 1004 l 1,32,33
 444 1124 444 1124 483 1237 c 0,0,1
1210 33 m 0,34,35
 1208 -45 1208 -45 1156 -98.5 c 128,-1,36
 1104 -152 1104 -152 1024 -152 c 128,-1,37
 944 -152 944 -152 891 -98.5 c 128,-1,38
 838 -45 838 -45 838 34 c 128,-1,39
 838 113 838 113 891 166 c 128,-1,40
 944 219 944 219 1024 219 c 128,-1,41
 1104 219 1104 219 1156 166 c 128,-1,42
 1208 113 1208 113 1210 33 c 0,34,35
EndSplineSet
EndChar

StartChar: bell
Encoding: 57360 57360 2
Width: 2048
Flags: W
LayerCount: 2
Fore
SplineSet
1667 324 m 0,0,1
 1696 291 1696 291 1714.5 257 c 128,-1,2
 1733 223 1733 223 1733 199.5 c 128,-1,3
 1733 176 1733 176 1715.5 163 c 128,-1,4
 1698 150 1698 150 1667 150 c 2,5,-1
 379 150 l 2,6,7
 346 150 346 150 331.5 163 c 128,-1,8
 317 176 317 176 317 199.5 c 128,-1,9
 317 223 317 223 333.5 257 c 128,-1,10
 350 291 350 291 379 323.5 c 128,-1,11
 408 356 408 356 436 397 c 0,12,13
 461 434 461 434 485.5 484.5 c 128,-1,14
 510 535 510 535 528 600 c 0,15,16
 540 649 540 649 548.5 692 c 128,-1,17
 557 735 557 735 563 766 c 0,18,19
 567 803 567 803 567 834 c 0,20,21
 583 1123 583 1123 672.5 1280.5 c 128,-1,22
 762 1438 762 1438 948 1462 c 1,23,24
 938 1476 938 1476 938 1503 c 0,25,26
 938 1517 938 1517 943 1530.5 c 128,-1,27
 948 1544 948 1544 957.5 1555.5 c 128,-1,28
 967 1567 967 1567 984 1577 c 128,-1,29
 1001 1587 1001 1587 1021.5 1587 c 128,-1,30
 1042 1587 1042 1587 1060.5 1577 c 128,-1,31
 1079 1567 1079 1567 1092 1554 c 0,32,33
 1098 1544 1098 1544 1103 1532 c 128,-1,34
 1108 1520 1108 1520 1108 1503 c 0,35,36
 1108 1478 1108 1478 1098 1462 c 1,37,38
 1284 1437 1284 1437 1375 1279.5 c 128,-1,39
 1466 1122 1466 1122 1479 834 c 0,40,41
 1479 803 1479 803 1485 766 c 0,42,43
 1489 735 1489 735 1496 692 c 128,-1,44
 1503 649 1503 649 1516 600 c 0,45,46
 1532 534 1532 534 1558.5 484 c 128,-1,47
 1585 434 1585 434 1608 397 c 0,48,49
 1638 355 1638 355 1667 324 c 0,0,1
766 59 m 1,50,-1
 1280 59 l 1,51,52
 1272 14 1272 14 1248.5 -24.5 c 128,-1,53
 1225 -63 1225 -63 1191 -92 c 128,-1,54
 1157 -121 1157 -121 1114 -137.5 c 128,-1,55
 1071 -154 1071 -154 1023 -154 c 128,-1,56
 975 -154 975 -154 932 -137.5 c 128,-1,57
 889 -121 889 -121 855 -92 c 128,-1,58
 821 -63 821 -63 798.5 -24.5 c 128,-1,59
 776 14 776 14 766 59 c 1,50,-1
EndSplineSet
EndChar

StartChar: menu
Encoding: 57376 57376 3
Width: 2048
Flags: W
LayerCount: 2
Fore
SplineSet
1894 1167 m 1,0,-1
 154 1167 l 1,1,-1
 154 1372 l 1,2,-1
 1894 1372 l 1,3,-1
 1894 1167 l 1,0,-1
1894 614 m 1,4,-1
 154 614 l 1,5,-1
 154 819 l 1,6,-1
 1894 819 l 1,7,-1
 1894 614 l 1,4,-1
1894 61 m 1,8,-1
 154 61 l 1,9,-1
 154 266 l 1,10,-1
 1894 266 l 1,11,-1
 1894 61 l 1,8,-1
EndSplineSet
EndChar

StartChar: gear
Encoding: 57397 57397 4
Width: 2048
Flags: W
LayerCount: 2
Fore
SplineSet
1675 713 m 1,0,1
 1675 787 1675 787 1659 858 c 1,2,-1
 1855 1008 l 1,3,-1
 1708 1260 l 1,4,-1
 1489 1176 l 1,5,6
 1438 1229 1438 1229 1372 1270 c 1,7,-1
 1405 1511 l 1,8,-1
 1122 1585 l 1,9,-1
 1028 1374 l 1,10,11
 952 1376 952 1376 874 1358 c 1,12,-1
 729 1546 l 1,13,-1
 477 1399 l 1,14,-1
 559 1188 l 1,15,16
 504 1135 504 1135 461 1065 c 1,17,-1
 227 1096 l 1,18,-1
 154 813 l 1,19,-1
 360 721 l 1,20,21
 360 641 360 641 379 565 c 1,22,-1
 193 420 l 1,23,-1
 338 168 l 1,24,-1
 555 252 l 1,25,26
 602 205 602 205 659 168 c 1,27,-1
 621 -70 l 1,28,-1
 899 -154 l 1,29,-1
 1001 61 l 1,30,31
 1087 59 1087 59 1167 78 c 1,32,-1
 1317 -117 l 1,33,-1
 1569 29 l 1,34,-1
 1483 254 l 1,35,36
 1534 305 1534 305 1573 367 c 1,37,-1
 1821 334 l 1,38,-1
 1894 616 l 1,39,-1
 1675 713 l 1,0,1
1219 1073 m 1,40,41
 1369 985 1369 985 1414.5 830.5 c 128,-1,42
 1460 676 1460 676 1380 520 c 1,43,44
 1294 370 1294 370 1138.5 324.5 c 128,-1,45
 983 279 983 279 829 356 c 1,46,47
 679 444 679 444 633.5 599 c 128,-1,48
 588 754 588 754 666 909 c 1,49,50
 754 1059 754 1059 908.5 1105 c 128,-1,51
 1063 1151 1063 1151 1219 1073 c 1,40,41
1155 645 m 0,52,53
 1124 590 1124 590 1066 572.5 c 128,-1,54
 1008 555 1008 555 952 584 c 0,55,56
 897 617 897 617 880.5 674 c 128,-1,57
 864 731 864 731 894 786.5 c 128,-1,58
 924 842 924 842 981 859.5 c 128,-1,59
 1038 877 1038 877 1096 848 c 0,60,61
 1151 815 1151 815 1167.5 757.5 c 128,-1,62
 1184 700 1184 700 1155 645 c 0,52,53
EndSplineSet
EndChar

StartChar: search
Encoding: 57401 57401 5
Width: 2048
Flags: W
LayerCount: 2
Fore
SplineSet
1255 1585 m 1,0,1
 981 1579 981 1579 797.5 1395.5 c 128,-1,2
 614 1212 614 1212 608 938 c 0,3,4
 610 764 610 764 692 621 c 1,5,-1
 209 131 l 2,6,7
 162 80 162 80 162 13.5 c 128,-1,8
 162 -53 162 -53 209 -102 c 0,9,10
 234 -127 234 -127 264.5 -138.5 c 128,-1,11
 295 -150 295 -150 326.5 -150 c 128,-1,12
 358 -150 358 -150 389 -137.5 c 128,-1,13
 420 -125 420 -125 442 -102 c 2,14,-1
 924 385 l 1,15,16
 996 340 996 340 1080.5 315.5 c 128,-1,17
 1165 291 1165 291 1255 291 c 0,18,19
 1529 297 1529 297 1712.5 480.5 c 128,-1,20
 1896 664 1896 664 1903 938 c 1,21,22
 1897 1212 1897 1212 1713 1395.5 c 128,-1,23
 1529 1579 1529 1579 1255 1585 c 1,0,1
1255 492 m 0,24,25
 1065 496 1065 496 939 623 c 128,-1,26
 813 750 813 750 809 938 c 0,27,28
 813 1128 813 1128 939 1254 c 128,-1,29
 1065 1380 1065 1380 1255 1384 c 0,30,31
 1443 1380 1443 1380 1570.5 1254 c 128,-1,32
 1698 1128 1698 1128 1702 938 c 0,33,34
 1698 750 1698 750 1570.5 623 c 128,-1,35
 1443 496 1443 496 1255 492 c 0,24,25
EndSplineSet
EndChar

StartChar: chevronUp
Encoding: 57479 57479 6
Width: 2048
Flags: W
LayerCount: 2
Fore
SplineSet
512 301 m 1,0,-1
 512 588 l 1,1,-1
 1024 1133 l 1,2,-1
 1536 592 l 1,3,-1
 1536 305 l 1,4,-1
 1024 840 l 1,5,-1
 512 301 l 1,0,-1
EndSplineSet
EndChar

StartChar: chevronDown
Encoding: 57480 57480 7
Width: 2048
Flags: W
LayerCount: 2
Fore
SplineSet
1536 1133 m 1,0,-1
 1536 846 l 1,1,-1
 1024 301 l 1,2,-1
 512 842 l 1,3,-1
 512 1128 l 1,4,-1
 1024 594 l 1,5,-1
 1536 1133 l 1,0,-1
EndSplineSet
EndChar

StartChar: listCheckbox
Encoding: 57902 57902 8
Width: 2048
Flags: W
LayerCount: 2
Fore
SplineSet
590 1505 m 1,0,-1
 590 1151 l 1,1,-1
 236 1151 l 1,2,-1
 236 1505 l 1,3,-1
 590 1505 l 1,0,-1
672 1587 m 1,4,-1
 154 1587 l 1,5,-1
 154 1069 l 1,6,-1
 672 1069 l 1,7,-1
 672 1587 l 1,4,-1
590 895 m 1,8,-1
 590 539 l 1,9,-1
 236 539 l 1,10,-1
 236 895 l 1,11,-1
 590 895 l 1,8,-1
672 977 m 1,12,-1
 154 977 l 1,13,-1
 154 457 l 1,14,-1
 672 457 l 1,15,-1
 672 977 l 1,12,-1
590 283 m 1,16,-1
 590 -72 l 1,17,-1
 236 -72 l 1,18,-1
 236 283 l 1,19,-1
 590 283 l 1,16,-1
672 365 m 1,20,-1
 154 365 l 1,21,-1
 154 -154 l 1,22,-1
 672 -154 l 1,23,-1
 672 365 l 1,20,-1
276 104 m 2,24,25
 268 116 268 116 279 127 c 2,26,-1
 303 150 l 2,27,28
 307 156 307 156 313 156 c 128,-1,29
 319 156 319 156 326 150 c 2,30,-1
 387 84 l 1,31,-1
 498 227 l 2,32,33
 502 233 502 233 510 233 c 0,34,35
 514 233 514 233 518 229 c 2,36,-1
 547 209 l 2,37,38
 551 205 551 205 552 199 c 128,-1,39
 553 193 553 193 549 186 c 2,40,-1
 391 -16 l 1,41,-1
 276 104 l 2,24,25
1894 1329 m 256,42,43
 1894 1364 1894 1364 1870.5 1387.5 c 128,-1,44
 1847 1411 1847 1411 1812 1411 c 2,45,-1
 854 1411 l 2,46,47
 819 1411 819 1411 795.5 1387.5 c 128,-1,48
 772 1364 772 1364 772 1329 c 128,-1,49
 772 1294 772 1294 795.5 1270.5 c 128,-1,50
 819 1247 819 1247 854 1247 c 2,51,-1
 1812 1247 l 2,52,53
 1847 1247 1847 1247 1870.5 1270.5 c 128,-1,54
 1894 1294 1894 1294 1894 1329 c 256,42,43
1892 717 m 256,55,56
 1892 752 1892 752 1868.5 775.5 c 128,-1,57
 1845 799 1845 799 1810 799 c 2,58,-1
 852 799 l 2,59,60
 817 799 817 799 793.5 775.5 c 128,-1,61
 770 752 770 752 770 717 c 128,-1,62
 770 682 770 682 793.5 658.5 c 128,-1,63
 817 635 817 635 852 635 c 2,64,-1
 1810 635 l 2,65,66
 1845 635 1845 635 1868.5 658.5 c 128,-1,67
 1892 682 1892 682 1892 717 c 256,55,56
1894 104 m 256,68,69
 1894 139 1894 139 1870.5 162.5 c 128,-1,70
 1847 186 1847 186 1812 186 c 2,71,-1
 854 186 l 2,72,73
 819 186 819 186 795.5 162.5 c 128,-1,74
 772 139 772 139 772 104.5 c 128,-1,75
 772 70 772 70 795.5 46.5 c 128,-1,76
 819 23 819 23 854 23 c 2,77,-1
 1812 23 l 2,78,79
 1847 23 1847 23 1870.5 46 c 128,-1,80
 1894 69 1894 69 1894 104 c 256,68,69
EndSplineSet
EndChar

StartChar: checkPeople
Encoding: 57945 57945 9
Width: 2048
Flags: W
LayerCount: 2
Fore
SplineSet
627 -29 m 1,0,-1
 197 -29 l 1,1,2
 203 32 203 32 209 89.5 c 128,-1,3
 215 147 215 147 227 205 c 0,4,5
 239 254 239 254 274 283.5 c 128,-1,6
 309 313 309 313 358 319 c 2,7,-1
 362 319 l 2,8,9
 374 319 374 319 383 315 c 2,10,-1
 399 303 l 2,11,12
 417 287 417 287 441 274.5 c 128,-1,13
 465 262 465 262 489 258 c 0,14,15
 503 254 503 254 516 254 c 0,16,17
 545 254 545 254 571.5 265 c 128,-1,18
 598 276 598 276 623 297 c 0,19,20
 635 307 635 307 646 312 c 128,-1,21
 657 317 657 317 668.5 317 c 128,-1,22
 680 317 680 317 689 315 c 128,-1,23
 698 313 698 313 707 309 c 0,24,25
 746 295 746 295 770 268 c 1,26,27
 743 256 743 256 719 236 c 0,28,29
 668 189 668 189 649 117 c 0,30,31
 633 49 633 49 627 -18 c 2,32,-1
 627 -29 l 1,0,-1
530 682 m 0,33,34
 462 680 462 680 418.5 627.5 c 128,-1,35
 375 575 375 575 375 497.5 c 128,-1,36
 375 420 375 420 419 368.5 c 128,-1,37
 463 317 463 317 530.5 317 c 128,-1,38
 598 317 598 317 642 368.5 c 128,-1,39
 686 420 686 420 686 497.5 c 128,-1,40
 686 575 686 575 641 627.5 c 128,-1,41
 596 680 596 680 530 682 c 0,33,34
1358 207 m 0,42,43
 1395 164 1395 164 1405 96 c 0,44,45
 1417 35 1417 35 1423 -27 c 2,46,-1
 1423 -29 l 1,47,-1
 1851 -29 l 1,48,-1
 1841 90 l 2,49,50
 1835 147 1835 147 1821 205 c 0,51,52
 1809 254 1809 254 1774 283.5 c 128,-1,53
 1739 313 1739 313 1690 319 c 2,54,-1
 1686 319 l 2,55,56
 1674 319 1674 319 1665.5 315 c 128,-1,57
 1657 311 1657 311 1651 303 c 0,58,59
 1631 287 1631 287 1609 274.5 c 128,-1,60
 1587 262 1587 262 1559 258 c 0,61,62
 1547 254 1547 254 1534 254 c 0,63,64
 1503 254 1503 254 1476.5 265 c 128,-1,65
 1450 276 1450 276 1427 297 c 0,66,67
 1415 307 1415 307 1403 312 c 128,-1,68
 1391 317 1391 317 1380.5 317 c 128,-1,69
 1370 317 1370 317 1362 315 c 128,-1,70
 1354 313 1354 313 1341 309 c 0,71,72
 1300 295 1300 295 1276 266 c 1,73,74
 1325 244 1325 244 1358 207 c 0,42,43
1518 682 m 0,75,76
 1450 680 1450 680 1406 627.5 c 128,-1,77
 1362 575 1362 575 1362 497.5 c 128,-1,78
 1362 420 1362 420 1406 368.5 c 128,-1,79
 1450 317 1450 317 1517.5 317 c 128,-1,80
 1585 317 1585 317 1629 368.5 c 128,-1,81
 1673 420 1673 420 1673 497.5 c 128,-1,82
 1673 575 1673 575 1629.5 627.5 c 128,-1,83
 1586 680 1586 680 1518 682 c 0,75,76
1374 -154 m 1,84,85
 1370 -93 1370 -93 1363 -33 c 128,-1,86
 1356 27 1356 27 1346 86 c 0,87,88
 1336 137 1336 137 1310 168 c 128,-1,89
 1284 199 1284 199 1235 217 c 2,90,-1
 1214 223 l 2,91,92
 1206 225 1206 225 1196 225 c 0,93,94
 1182 225 1182 225 1169.5 220 c 128,-1,95
 1157 215 1157 215 1143 203 c 0,96,97
 1118 183 1118 183 1089.5 170.5 c 128,-1,98
 1061 158 1061 158 1026 158 c 0,99,100
 1012 158 1012 158 997 160 c 0,101,102
 968 166 968 166 944 179.5 c 128,-1,103
 920 193 920 193 897 211 c 2,104,-1
 879 223 l 2,105,106
 871 227 871 227 858 227 c 2,107,-1
 854 227 l 2,108,109
 799 221 799 221 761 188.5 c 128,-1,110
 723 156 723 156 709 102 c 0,111,112
 695 39 695 39 687.5 -24.5 c 128,-1,113
 680 -88 680 -88 676 -154 c 1,114,-1
 1374 -154 l 1,84,85
1020 639 m 0,115,116
 948 637 948 637 900 580.5 c 128,-1,117
 852 524 852 524 852 440 c 128,-1,118
 852 356 852 356 900 299 c 128,-1,119
 948 242 948 242 1020 240 c 0,120,121
 1092 242 1092 242 1141 298 c 128,-1,122
 1190 354 1190 354 1190 440 c 128,-1,123
 1190 526 1190 526 1141 581.5 c 128,-1,124
 1092 637 1092 637 1020 639 c 0,115,116
678 1223 m 2,125,126
 668 1237 668 1237 680 1251 c 2,127,-1
 760 1327 l 2,128,129
 766 1333 766 1333 774 1332 c 128,-1,130
 782 1331 782 1331 788 1325 c 2,131,-1
 1012 1085 l 1,132,-1
 1395 1579 l 2,133,134
 1401 1587 1401 1587 1409 1587 c 128,-1,135
 1417 1587 1417 1587 1423 1583 c 2,136,-1
 1511 1516 l 2,137,138
 1517 1510 1517 1510 1518.5 1502.5 c 128,-1,139
 1520 1495 1520 1495 1516 1487 c 2,140,-1
 1022 852 l 1,141,-1
 678 1223 l 2,125,126
EndSplineSet
EndChar

StartChar: glimmer
Encoding: 58112 58112 10
Width: 2048
Flags: W
LayerCount: 2
Fore
SplineSet
1792 1709 m 5,0,-1
 2048 1709 l 5,1,-1
 2048 429 l 5,2,-1
 1792 429 l 5,3,-1
 1792 1709 l 5,0,-1
0 -339 m 5,4,-1
 0 -83 l 5,5,-1
 1280 -83 l 5,6,-1
 1280 -339 l 5,7,-1
 0 -339 l 5,4,-1
486 1043 m 5,8,-1
 666 1223 l 5,9,-1
 1562 327 l 5,10,-1
 1382 147 l 5,11,-1
 486 1043 l 5,8,-1
EndSplineSet
EndChar

StartChar: waffle2
Encoding: 58115 58115 11
Width: 2048
Flags: W
LayerCount: 2
Fore
SplineSet
569 1174 m 1,0,-1
 154 1174 l 1,1,-1
 154 1587 l 1,2,-1
 569 1587 l 1,3,-1
 569 1174 l 1,0,-1
1231 1587 m 1,4,-1
 817 1587 l 1,5,-1
 817 1174 l 1,6,-1
 1231 1174 l 1,7,-1
 1231 1587 l 1,4,-1
1894 1587 m 1,8,-1
 1481 1587 l 1,9,-1
 1481 1174 l 1,10,-1
 1894 1174 l 1,11,-1
 1894 1587 l 1,8,-1
569 924 m 1,12,-1
 154 924 l 1,13,-1
 154 508 l 1,14,-1
 569 508 l 1,15,-1
 569 924 l 1,12,-1
1231 924 m 1,16,-1
 817 924 l 1,17,-1
 817 508 l 1,18,-1
 1231 508 l 1,19,-1
 1231 924 l 1,16,-1
1894 924 m 1,20,-1
 1481 924 l 1,21,-1
 1481 508 l 1,22,-1
 1894 508 l 1,23,-1
 1894 924 l 1,20,-1
569 262 m 1,24,-1
 154 262 l 1,25,-1
 154 -154 l 1,26,-1
 569 -154 l 1,27,-1
 569 262 l 1,24,-1
1231 262 m 1,28,-1
 817 262 l 1,29,-1
 817 -154 l 1,30,-1
 1231 -154 l 1,31,-1
 1231 262 l 1,28,-1
1894 262 m 1,32,-1
 1481 262 l 1,33,-1
 1481 -154 l 1,34,-1
 1894 -154 l 1,35,-1
 1894 262 l 1,32,-1
EndSplineSet
EndChar

StartChar: x2
Encoding: 58195 58195 12
Width: 2048
Flags: W
LayerCount: 2
Fore
SplineSet
1104 717 m 1,0,-1
 1894 -76 l 1,1,-1
 1817 -154 l 1,2,-1
 1024 639 l 1,3,-1
 231 -154 l 1,4,-1
 154 -76 l 1,5,-1
 946 717 l 1,6,-1
 154 1509 l 1,7,-1
 231 1587 l 1,8,-1
 1024 797 l 1,9,-1
 1817 1587 l 1,10,-1
 1894 1509 l 1,11,-1
 1104 717 l 1,0,-1
EndSplineSet
EndChar

StartChar: share3
Encoding: 58376 58376 13
Width: 2048
Flags: W
LayerCount: 2
Fore
SplineSet
1769 457 m 1,0,1
 1798 439 1798 439 1821.5 413 c 128,-1,2
 1845 387 1845 387 1861.5 358.5 c 128,-1,3
 1878 330 1878 330 1886 296 c 128,-1,4
 1894 262 1894 262 1894 227 c 0,5,6
 1896 172 1896 172 1873.5 122 c 128,-1,7
 1851 72 1851 72 1814.5 35 c 128,-1,8
 1778 -2 1778 -2 1728.5 -23.5 c 128,-1,9
 1679 -45 1679 -45 1622 -45 c 0,10,11
 1544 -45 1544 -45 1479 -4 c 1,12,13
 1381 -78 1381 -78 1264 -116 c 128,-1,14
 1147 -154 1147 -154 1024 -154 c 128,-1,15
 901 -154 901 -154 784.5 -116 c 128,-1,16
 668 -78 668 -78 569 -4 c 1,17,18
 503 -45 503 -45 426 -45 c 0,19,20
 371 -45 371 -45 320.5 -23.5 c 128,-1,21
 270 -2 270 -2 233.5 35 c 128,-1,22
 197 72 197 72 175.5 122 c 128,-1,23
 154 172 154 172 154 227 c 0,24,25
 154 262 154 262 163 296 c 128,-1,26
 172 330 172 330 188.5 358.5 c 128,-1,27
 205 387 205 387 227.5 412.5 c 128,-1,28
 250 438 250 438 279 457 c 1,29,30
 271 494 271 494 266.5 531.5 c 128,-1,31
 262 569 262 569 262 608 c 0,32,33
 262 725 262 725 298 835.5 c 128,-1,34
 334 946 334 946 398.5 1039.5 c 128,-1,35
 463 1133 463 1133 553 1205.5 c 128,-1,36
 643 1278 643 1278 752 1319 c 1,37,38
 752 1374 752 1374 774.5 1423.5 c 128,-1,39
 797 1473 797 1473 833.5 1509.5 c 128,-1,40
 870 1546 870 1546 919.5 1567.5 c 128,-1,41
 969 1589 969 1589 1024 1588 c 128,-1,42
 1079 1587 1079 1587 1128.5 1565.5 c 128,-1,43
 1178 1544 1178 1544 1214.5 1508.5 c 128,-1,44
 1251 1473 1251 1473 1272.5 1423.5 c 128,-1,45
 1294 1374 1294 1374 1296 1319 c 1,46,47
 1407 1278 1407 1278 1497 1205.5 c 128,-1,48
 1587 1133 1587 1133 1650.5 1039.5 c 128,-1,49
 1714 946 1714 946 1750 835.5 c 128,-1,50
 1786 725 1786 725 1786 608 c 0,51,52
 1786 571 1786 571 1782.5 532.5 c 128,-1,53
 1779 494 1779 494 1769 457 c 1,0,1
262 227 m 256,54,55
 262 194 262 194 275.5 163.5 c 128,-1,56
 289 133 289 133 311.5 111.5 c 128,-1,57
 334 90 334 90 362.5 76.5 c 128,-1,58
 391 63 391 63 425 63 c 128,-1,59
 459 63 459 63 489.5 76.5 c 128,-1,60
 520 90 520 90 541.5 111.5 c 128,-1,61
 563 133 563 133 575.5 164 c 128,-1,62
 588 195 588 195 588 227.5 c 128,-1,63
 588 260 588 260 575.5 291 c 128,-1,64
 563 322 563 322 541.5 344.5 c 128,-1,65
 520 367 520 367 489.5 379 c 128,-1,66
 459 391 459 391 425 391 c 128,-1,67
 391 391 391 391 362.5 379 c 128,-1,68
 334 367 334 367 310.5 344.5 c 128,-1,69
 287 322 287 322 274.5 291 c 128,-1,70
 262 260 262 260 262 227 c 256,54,55
1024 -45 m 0,71,72
 1126 -45 1126 -45 1221.5 -14.5 c 128,-1,73
 1317 16 1317 16 1399 74 c 1,74,75
 1376 109 1376 109 1364 148.5 c 128,-1,76
 1352 188 1352 188 1352 227 c 0,77,78
 1352 282 1352 282 1373.5 332.5 c 128,-1,79
 1395 383 1395 383 1431.5 420 c 128,-1,80
 1468 457 1468 457 1517.5 478.5 c 128,-1,81
 1567 500 1567 500 1622 500 c 0,82,83
 1634 500 1634 500 1645.5 499 c 128,-1,84
 1657 498 1657 498 1667 496 c 1,85,86
 1677 553 1677 553 1677 608 c 0,87,88
 1677 708 1677 708 1649.5 800.5 c 128,-1,89
 1622 893 1622 893 1569 972 c 128,-1,90
 1516 1051 1516 1051 1442 1112.5 c 128,-1,91
 1368 1174 1368 1174 1276 1210 c 1,92,93
 1260 1173 1260 1173 1234 1142.5 c 128,-1,94
 1208 1112 1208 1112 1174.5 1089.5 c 128,-1,95
 1141 1067 1141 1067 1103 1055.5 c 128,-1,96
 1065 1044 1065 1044 1024 1044 c 128,-1,97
 983 1044 983 1044 945 1055.5 c 128,-1,98
 907 1067 907 1067 873.5 1089.5 c 128,-1,99
 840 1112 840 1112 815.5 1143 c 128,-1,100
 791 1174 791 1174 774 1210 c 1,101,102
 682 1173 682 1173 608.5 1112 c 128,-1,103
 535 1051 535 1051 482.5 972 c 128,-1,104
 430 893 430 893 401.5 801 c 128,-1,105
 373 709 373 709 373 608 c 0,106,107
 373 553 373 553 383 496 c 1,108,109
 444 506 444 506 501.5 488.5 c 128,-1,110
 559 471 559 471 603 434 c 128,-1,111
 647 397 647 397 672.5 343 c 128,-1,112
 698 289 698 289 698 227 c 0,113,114
 698 188 698 188 686 148.5 c 128,-1,115
 674 109 674 109 651 74 c 1,116,117
 735 17 735 17 829.5 -14 c 128,-1,118
 924 -45 924 -45 1024 -45 c 0,71,72
1024 1479 m 256,119,120
 991 1479 991 1479 960.5 1466.5 c 128,-1,121
 930 1454 930 1454 908.5 1431.5 c 128,-1,122
 887 1409 887 1409 873.5 1379.5 c 128,-1,123
 860 1350 860 1350 861 1316 c 128,-1,124
 862 1282 862 1282 874.5 1252.5 c 128,-1,125
 887 1223 887 1223 908.5 1200.5 c 128,-1,126
 930 1178 930 1178 960.5 1165.5 c 128,-1,127
 991 1153 991 1153 1024 1153 c 128,-1,128
 1057 1153 1057 1153 1087.5 1165.5 c 128,-1,129
 1118 1178 1118 1178 1140.5 1200.5 c 128,-1,130
 1163 1223 1163 1223 1175.5 1252.5 c 128,-1,131
 1188 1282 1188 1282 1188 1316 c 128,-1,132
 1188 1350 1188 1350 1175.5 1379.5 c 128,-1,133
 1163 1409 1163 1409 1140.5 1431.5 c 128,-1,134
 1118 1454 1118 1454 1087.5 1466.5 c 128,-1,135
 1057 1479 1057 1479 1024 1479 c 256,119,120
1622 63 m 0,136,137
 1657 63 1657 63 1686.5 76.5 c 128,-1,138
 1716 90 1716 90 1738.5 112.5 c 128,-1,139
 1761 135 1761 135 1773.5 164 c 128,-1,140
 1786 193 1786 193 1786 226.5 c 128,-1,141
 1786 260 1786 260 1772.5 291 c 128,-1,142
 1759 322 1759 322 1737.5 343.5 c 128,-1,143
 1716 365 1716 365 1686.5 377 c 128,-1,144
 1657 389 1657 389 1623 389 c 128,-1,145
 1589 389 1589 389 1558.5 377 c 128,-1,146
 1528 365 1528 365 1506.5 343.5 c 128,-1,147
 1485 322 1485 322 1472.5 291 c 128,-1,148
 1460 260 1460 260 1460 226.5 c 128,-1,149
 1460 193 1460 193 1472.5 164 c 128,-1,150
 1485 135 1485 135 1506.5 112.5 c 128,-1,151
 1528 90 1528 90 1558.5 76.5 c 128,-1,152
 1589 63 1589 63 1622 63 c 0,136,137
EndSplineSet
EndChar

StartChar: contactInfo
Encoding: 58391 58391 14
Width: 2048
Flags: W
LayerCount: 2
Fore
SplineSet
782 616 m 1,0,1
 837 589 837 589 882.5 547.5 c 128,-1,2
 928 506 928 506 958.5 456 c 128,-1,3
 989 406 989 406 1006.5 347.5 c 128,-1,4
 1024 289 1024 289 1024 227 c 1,5,-1
 915 227 l 1,6,7
 915 295 915 295 889.5 354.5 c 128,-1,8
 864 414 864 414 820 458 c 128,-1,9
 776 502 776 502 715.5 527.5 c 128,-1,10
 655 553 655 553 588.5 553 c 128,-1,11
 522 553 522 553 462.5 527.5 c 128,-1,12
 403 502 403 502 359 458 c 128,-1,13
 315 414 315 414 289.5 354.5 c 128,-1,14
 264 295 264 295 262 227 c 1,15,-1
 154 227 l 1,16,17
 154 288 154 288 171 347 c 128,-1,18
 188 406 188 406 220 456 c 128,-1,19
 252 506 252 506 296 548 c 128,-1,20
 340 590 340 590 395 616 c 1,21,22
 334 663 334 663 298 733 c 128,-1,23
 262 803 262 803 262 881 c 0,24,25
 262 949 262 949 288.5 1008 c 128,-1,26
 315 1067 315 1067 359 1111 c 128,-1,27
 403 1155 403 1155 462.5 1180.5 c 128,-1,28
 522 1206 522 1206 588.5 1206 c 128,-1,29
 655 1206 655 1206 715.5 1180.5 c 128,-1,30
 776 1155 776 1155 820 1111 c 128,-1,31
 864 1067 864 1067 889.5 1006.5 c 128,-1,32
 915 946 915 946 915 881 c 0,33,34
 915 803 915 803 879 733 c 128,-1,35
 843 663 843 663 782 616 c 1,0,1
371 881 m 0,36,37
 371 836 371 836 388.5 796 c 128,-1,38
 406 756 406 756 435.5 727 c 128,-1,39
 465 698 465 698 505 680 c 128,-1,40
 545 662 545 662 590 662 c 128,-1,41
 635 662 635 662 675 680 c 128,-1,42
 715 698 715 698 743.5 728 c 128,-1,43
 772 758 772 758 789.5 797 c 128,-1,44
 807 836 807 836 807 880 c 128,-1,45
 807 924 807 924 789.5 964 c 128,-1,46
 772 1004 772 1004 742.5 1034.5 c 128,-1,47
 713 1065 713 1065 674 1081.5 c 128,-1,48
 635 1098 635 1098 590 1098 c 128,-1,49
 545 1098 545 1098 505 1080.5 c 128,-1,50
 465 1063 465 1063 436.5 1033.5 c 128,-1,51
 408 1004 408 1004 389.5 964 c 128,-1,52
 371 924 371 924 371 881 c 0,36,37
1894 1206 m 1,53,-1
 1894 1098 l 1,54,-1
 1133 1098 l 1,55,-1
 1133 1206 l 1,56,-1
 1894 1206 l 1,53,-1
1133 770 m 1,57,-1
 1894 770 l 1,58,-1
 1894 662 l 1,59,-1
 1133 662 l 1,60,-1
 1133 770 l 1,57,-1
1133 336 m 1,61,-1
 1894 336 l 1,62,-1
 1894 227 l 1,63,-1
 1133 227 l 1,64,-1
 1133 336 l 1,61,-1
EndSplineSet
EndChar

StartChar: uniF8FF
Encoding: 63743 63743 15
Width: 2048
Flags: W
LayerCount: 2
Fore
SplineSet
1453 807 m 5,0,-1
 832 186 l 5,1,-1
 467 551 l 5,2,-1
 557 641 l 5,3,-1
 832 366 l 5,4,-1
 1363 897 l 5,5,-1
 1453 807 l 5,0,-1
EndSplineSet
EndChar

StartChar: uniF8FE
Encoding: 63742 63742 16
Width: 2048
Flags: W
LayerCount: 2
Fore
SplineSet
1024 1748 m 260,0,1
 1165 1748 1165 1748 1296 1711.5 c 132,-1,2
 1427 1675 1427 1675 1540.5 1608 c 132,-1,3
 1654 1541 1654 1541 1747.5 1447.5 c 132,-1,4
 1841 1354 1841 1354 1908 1240.5 c 132,-1,5
 1975 1127 1975 1127 2011.5 996 c 132,-1,6
 2048 865 2048 865 2048 724 c 260,7,8
 2048 583 2048 583 2011.5 452 c 132,-1,9
 1975 321 1975 321 1908 207.5 c 132,-1,10
 1841 94 1841 94 1747.5 0.5 c 132,-1,11
 1654 -93 1654 -93 1540.5 -160 c 132,-1,12
 1427 -227 1427 -227 1296 -263.5 c 132,-1,13
 1165 -300 1165 -300 1024 -300 c 260,14,15
 883 -300 883 -300 752 -263.5 c 132,-1,16
 621 -227 621 -227 507.5 -160 c 132,-1,17
 394 -93 394 -93 300.5 0.5 c 132,-1,18
 207 94 207 94 140 207.5 c 132,-1,19
 73 321 73 321 36.5 452 c 132,-1,20
 0 583 0 583 0 724 c 260,21,22
 0 865 0 865 36.5 996 c 132,-1,23
 73 1127 73 1127 140 1240.5 c 132,-1,24
 207 1354 207 1354 300.5 1447.5 c 132,-1,25
 394 1541 394 1541 507.5 1608 c 132,-1,26
 621 1675 621 1675 752 1711.5 c 132,-1,27
 883 1748 883 1748 1024 1748 c 260,0,1
1024 -172 m 260,28,29
 1148 -172 1148 -172 1262.5 -140 c 132,-1,30
 1377 -108 1377 -108 1476.5 -49.5 c 132,-1,31
 1576 9 1576 9 1657.5 90.5 c 132,-1,32
 1739 172 1739 172 1797.5 271.5 c 132,-1,33
 1856 371 1856 371 1888 485.5 c 132,-1,34
 1920 600 1920 600 1920 724 c 260,35,36
 1920 848 1920 848 1888 962.5 c 132,-1,37
 1856 1077 1856 1077 1797.5 1176.5 c 132,-1,38
 1739 1276 1739 1276 1657.5 1357.5 c 132,-1,39
 1576 1439 1576 1439 1476.5 1497.5 c 132,-1,40
 1377 1556 1377 1556 1262.5 1588 c 132,-1,41
 1148 1620 1148 1620 1024 1620 c 260,42,43
 900 1620 900 1620 785.5 1588 c 132,-1,44
 671 1556 671 1556 571.5 1497.5 c 132,-1,45
 472 1439 472 1439 390.5 1357.5 c 132,-1,46
 309 1276 309 1276 250.5 1176.5 c 132,-1,47
 192 1077 192 1077 160 962.5 c 132,-1,48
 128 848 128 848 128 724 c 260,49,50
 128 600 128 600 160 485.5 c 132,-1,51
 192 371 192 371 250.5 271.5 c 132,-1,52
 309 172 309 172 390.5 90.5 c 132,-1,53
 472 9 472 9 571.5 -49.5 c 132,-1,54
 671 -108 671 -108 785.5 -140 c 132,-1,55
 900 -172 900 -172 1024 -172 c 260,28,29
EndSplineSet
EndChar

StartChar: uniF8FD
Encoding: 63741 63741 17
Width: 2048
Flags: W
LayerCount: 2
Fore
SplineSet
1024 1652 m 260,0,1
 1057 1652 1057 1652 1086 1639.5 c 132,-1,2
 1115 1627 1115 1627 1137 1605 c 132,-1,3
 1159 1583 1159 1583 1171.5 1554 c 132,-1,4
 1184 1525 1184 1525 1184 1492 c 260,5,6
 1184 1459 1184 1459 1171.5 1430 c 132,-1,7
 1159 1401 1159 1401 1137 1379 c 132,-1,8
 1115 1357 1115 1357 1086 1344.5 c 132,-1,9
 1057 1332 1057 1332 1024 1332 c 260,10,11
 991 1332 991 1332 962 1344.5 c 132,-1,12
 933 1357 933 1357 911 1379 c 132,-1,13
 889 1401 889 1401 876.5 1430 c 132,-1,14
 864 1459 864 1459 864 1492 c 260,15,16
 864 1525 864 1525 876.5 1554 c 132,-1,17
 889 1583 889 1583 911 1605 c 132,-1,18
 933 1627 933 1627 962 1639.5 c 132,-1,19
 991 1652 991 1652 1024 1652 c 260,0,1
337 1267 m 260,20,21
 337 1297 337 1297 348 1323 c 132,-1,22
 359 1349 359 1349 378.5 1368.5 c 132,-1,23
 398 1388 398 1388 424.5 1399.5 c 132,-1,24
 451 1411 451 1411 481 1411 c 260,25,26
 511 1411 511 1411 537 1399.5 c 132,-1,27
 563 1388 563 1388 582.5 1368.5 c 132,-1,28
 602 1349 602 1349 613.5 1323 c 132,-1,29
 625 1297 625 1297 625 1267 c 260,30,31
 625 1237 625 1237 613.5 1210.5 c 132,-1,32
 602 1184 602 1184 582.5 1164.5 c 132,-1,33
 563 1145 563 1145 537 1134 c 132,-1,34
 511 1123 511 1123 481 1123 c 260,35,36
 451 1123 451 1123 424.5 1134 c 132,-1,37
 398 1145 398 1145 378.5 1164.5 c 132,-1,38
 359 1184 359 1184 348 1210.5 c 132,-1,39
 337 1237 337 1237 337 1267 c 260,20,21
256 852 m 260,40,41
 283 852 283 852 306 842 c 132,-1,42
 329 832 329 832 346.5 814.5 c 132,-1,43
 364 797 364 797 374 774 c 132,-1,44
 384 751 384 751 384 724 c 260,45,46
 384 697 384 697 374 674 c 132,-1,47
 364 651 364 651 346.5 633.5 c 132,-1,48
 329 616 329 616 306 606 c 132,-1,49
 283 596 283 596 256 596 c 260,50,51
 229 596 229 596 206 606 c 132,-1,52
 183 616 183 616 165.5 633.5 c 132,-1,53
 148 651 148 651 138 674 c 132,-1,54
 128 697 128 697 128 724 c 260,55,56
 128 751 128 751 138 774 c 132,-1,57
 148 797 148 797 165.5 814.5 c 132,-1,58
 183 832 183 832 206 842 c 132,-1,59
 229 852 229 852 256 852 c 260,40,41
369 181 m 260,60,61
 369 204 369 204 378 224.5 c 132,-1,62
 387 245 387 245 402 260 c 132,-1,63
 417 275 417 275 437.5 284 c 132,-1,64
 458 293 458 293 481 293 c 260,65,66
 504 293 504 293 524.5 284 c 132,-1,67
 545 275 545 275 560 260 c 132,-1,68
 575 245 575 245 584 224.5 c 132,-1,69
 593 204 593 204 593 181 c 260,70,71
 593 158 593 158 584 137.5 c 132,-1,72
 575 117 575 117 560 102 c 132,-1,73
 545 87 545 87 524.5 78 c 132,-1,74
 504 69 504 69 481 69 c 260,75,76
 458 69 458 69 437.5 78 c 132,-1,77
 417 87 417 87 402 102 c 132,-1,78
 387 117 387 117 378 137.5 c 132,-1,79
 369 158 369 158 369 181 c 260,60,61
1024 52 m 260,80,81
 1064 52 1064 52 1092 24 c 132,-1,82
 1120 -4 1120 -4 1120 -44 c 260,83,84
 1120 -84 1120 -84 1092 -112 c 132,-1,85
 1064 -140 1064 -140 1024 -140 c 260,86,87
 984 -140 984 -140 956 -112 c 132,-1,88
 928 -84 928 -84 928 -44 c 260,89,90
 928 -4 928 -4 956 24 c 132,-1,91
 984 52 984 52 1024 52 c 260,80,81
1487 181 m 260,92,93
 1487 215 1487 215 1510 238 c 132,-1,94
 1533 261 1533 261 1567 261 c 260,95,96
 1601 261 1601 261 1624 238 c 132,-1,97
 1647 215 1647 215 1647 181 c 260,98,99
 1647 147 1647 147 1624 124 c 132,-1,100
 1601 101 1601 101 1567 101 c 260,101,102
 1533 101 1533 101 1510 124 c 132,-1,103
 1487 147 1487 147 1487 181 c 260,92,93
1792 788 m 260,104,105
 1818 788 1818 788 1837 769 c 132,-1,106
 1856 750 1856 750 1856 724 c 260,107,108
 1856 698 1856 698 1837 679 c 132,-1,109
 1818 660 1818 660 1792 660 c 260,110,111
 1766 660 1766 660 1747 679 c 132,-1,112
 1728 698 1728 698 1728 724 c 260,113,114
 1728 750 1728 750 1747 769 c 132,-1,115
 1766 788 1766 788 1792 788 c 260,104,105
1567 1443 m 260,116,117
 1603 1443 1603 1443 1635 1429 c 132,-1,118
 1667 1415 1667 1415 1691 1391 c 132,-1,119
 1715 1367 1715 1367 1729 1335 c 132,-1,120
 1743 1303 1743 1303 1743 1267 c 260,121,122
 1743 1231 1743 1231 1729 1199 c 132,-1,123
 1715 1167 1715 1167 1691 1143 c 132,-1,124
 1667 1119 1667 1119 1635 1105 c 132,-1,125
 1603 1091 1603 1091 1567 1091 c 260,126,127
 1531 1091 1531 1091 1499 1105 c 132,-1,128
 1467 1119 1467 1119 1443 1143 c 132,-1,129
 1419 1167 1419 1167 1405 1199 c 132,-1,130
 1391 1231 1391 1231 1391 1267 c 260,131,132
 1391 1303 1391 1303 1405 1335 c 132,-1,133
 1419 1367 1419 1367 1443 1391 c 132,-1,134
 1467 1415 1467 1415 1499 1429 c 132,-1,135
 1531 1443 1531 1443 1567 1443 c 260,116,117
EndSplineSet
EndChar

StartChar: uniF8FC
Encoding: 63740 63740 18
Width: 2048
Flags: W
LayerCount: 2
Fore
SplineSet
1364 289 m 5,0,-1
 1455 199 l 5,1,-1
 962 -294 l 5,2,-1
 468 199 l 5,3,-1
 559 289 l 5,4,-1
 897 -49 l 5,5,-1
 896 1745 l 5,6,-1
 1024 1745 l 5,7,-1
 1025 -50 l 5,8,-1
 1364 289 l 5,9,-1
 1364 289 l 5,0,-1
EndSplineSet
EndChar

StartChar: uniF8FB
Encoding: 63739 63739 19
Width: 2048
Flags: W
LayerCount: 2
Fore
SplineSet
1453 1249 m 5,0,-1
 1363 1159 l 1,1,-1
 1025 1496 l 1,2,-1
 1024 -300 l 1,3,-1
 896 -300 l 1,4,-1
 897 1499 l 1,5,-1
 557 1159 l 1,6,-1
 467 1249 l 1,7,-1
 960 1742 l 1,8,-1
 1453 1249 l 1,9,-1
 1453 1249 l 5,0,-1
EndSplineSet
EndChar

StartChar: uniE38E
Encoding: 58254 58254 20
Width: 2048
VWidth: 1000
Flags: W
LayerCount: 2
Fore
SplineSet
1565 1427 m 5,0,-1
 1890 1427 l 5,1,-1
 1890 -97 l 5,2,-1
 150 -97 l 5,3,-1
 150 1427 l 5,4,-1
 475 1427 l 5,5,-1
 475 1536 l 5,6,-1
 586 1536 l 5,7,-1
 586 1427 l 5,8,-1
 1456 1427 l 5,9,-1
 1456 1536 l 5,10,-1
 1565 1536 l 5,11,-1
 1565 1427 l 5,0,-1
475 1319 m 5,12,-1
 258 1319 l 5,13,-1
 258 1101 l 5,14,-1
 1782 1101 l 5,15,-1
 1782 1319 l 5,16,-1
 1565 1319 l 5,17,-1
 1565 1210 l 5,18,-1
 1456 1210 l 5,19,-1
 1456 1319 l 5,20,-1
 586 1319 l 5,21,-1
 586 1210 l 5,22,-1
 475 1210 l 5,23,-1
 475 1319 l 5,12,-1
258 14 m 5,24,-1
 1782 14 l 5,25,-1
 1782 993 l 5,26,-1
 258 993 l 5,27,-1
 258 14 l 5,24,-1
475 557 m 5,28,-1
 475 665 l 5,29,-1
 586 665 l 5,30,-1
 586 557 l 5,31,-1
 475 557 l 5,28,-1
475 340 m 5,32,-1
 475 448 l 5,33,-1
 586 448 l 5,34,-1
 586 340 l 5,35,-1
 475 340 l 5,32,-1
475 123 m 5,36,-1
 475 231 l 5,37,-1
 586 231 l 5,38,-1
 586 123 l 5,39,-1
 475 123 l 5,36,-1
803 776 m 5,40,-1
 803 884 l 5,41,-1
 911 884 l 5,42,-1
 911 776 l 5,43,-1
 803 776 l 5,40,-1
803 557 m 5,44,-1
 803 665 l 5,45,-1
 911 665 l 5,46,-1
 911 557 l 5,47,-1
 803 557 l 5,44,-1
803 340 m 5,48,-1
 803 448 l 5,49,-1
 911 448 l 5,50,-1
 911 340 l 5,51,-1
 803 340 l 5,48,-1
803 123 m 5,52,-1
 803 231 l 5,53,-1
 911 231 l 5,54,-1
 911 123 l 5,55,-1
 803 123 l 5,52,-1
1129 776 m 5,56,-1
 1129 884 l 5,57,-1
 1237 884 l 5,58,-1
 1237 776 l 5,59,-1
 1129 776 l 5,56,-1
1129 557 m 5,60,-1
 1129 665 l 5,61,-1
 1237 665 l 5,62,-1
 1237 557 l 5,63,-1
 1129 557 l 5,60,-1
1129 340 m 5,64,-1
 1129 448 l 5,65,-1
 1237 448 l 5,66,-1
 1237 340 l 5,67,-1
 1129 340 l 5,64,-1
1129 123 m 5,68,-1
 1129 231 l 5,69,-1
 1237 231 l 5,70,-1
 1237 123 l 5,71,-1
 1129 123 l 5,68,-1
1456 776 m 5,72,-1
 1456 884 l 5,73,-1
 1565 884 l 5,74,-1
 1565 776 l 5,75,-1
 1456 776 l 5,72,-1
1456 557 m 5,76,-1
 1456 665 l 5,77,-1
 1565 665 l 5,78,-1
 1565 557 l 5,79,-1
 1456 557 l 5,76,-1
1456 340 m 5,80,-1
 1456 448 l 5,81,-1
 1565 448 l 5,82,-1
 1565 340 l 5,83,-1
 1456 340 l 5,80,-1
EndSplineSet
EndChar

StartChar: uniE27A
Encoding: 57978 57978 21
Width: 2048
VWidth: 1000
Flags: W
LayerCount: 2
Fore
SplineSet
474 700 m 1,0,-1
 474 999 l 1,1,-1
 1011 1570 l 1,2,-1
 1548 999 l 1,3,-1
 1550 700 l 1,4,-1
 1144 1118 l 1,5,-1
 1142 -170 l 1,6,-1
 880 -170 l 1,7,-1
 880 1118 l 1,8,-1
 474 700 l 1,0,-1
EndSplineSet
EndChar

StartChar: uniE27B
Encoding: 57979 57979 22
Width: 2048
VWidth: 1000
Flags: W
LayerCount: 2
Fore
SplineSet
1537 720 m 1,0,-1
 1537 423 l 1,1,-1
 1000 -150 l 1,2,-1
 463 423 l 1,3,-1
 463 720 l 1,4,-1
 869 302 l 1,5,-1
 869 1590 l 1,6,-1
 1131 1590 l 1,7,-1
 1131 302 l 1,8,-1
 1537 720 l 1,0,-1
EndSplineSet
EndChar

StartChar: uniF8FA
Encoding: 63738 63738 23
Width: 2048
Flags: W
LayerCount: 2
Fore
SplineSet
1837 1141 m 5,0,-1
 768 71 l 5,1,-1
 211 629 l 5,2,-1
 301 719 l 5,3,-1
 768 253 l 5,4,-1
 1747 1231 l 5,5,-1
 1837 1141 l 5,0,-1
EndSplineSet
EndChar

StartChar: uniE278
Encoding: 57976 57976 24
Width: 2048
VWidth: 1000
Flags: W
LayerCount: 2
Fore
SplineSet
1890.40039062 628.559570312 m 1,0,-1
 1081.44042969 628.559570312 l 1,1,-1
 1081.44042969 -180.400390625 l 1,2,-1
 958.559570312 -180.400390625 l 1,3,-1
 958.559570312 628.559570312 l 1,4,-1
 149.599609375 628.559570312 l 1,5,-1
 149.599609375 751.440429688 l 1,6,-1
 958.559570312 751.440429688 l 1,7,-1
 958.559570312 1560.40039062 l 1,8,-1
 1081.44042969 1560.40039062 l 1,9,-1
 1081.44042969 751.440429688 l 1,10,-1
 1890.40039062 751.440429688 l 1,11,-1
 1890.40039062 628.559570312 l 1,0,-1
EndSplineSet
EndChar

StartChar: uniF8F9
Encoding: 63737 63737 25
Width: 2048
Flags: W
LayerCount: 2
Fore
SplineSet
1030 1658 m 260,0,1
 1163 1658 1163 1658 1285.5 1624 c 132,-1,2
 1408 1590 1408 1590 1515 1527.5 c 132,-1,3
 1622 1465 1622 1465 1709.5 1377.5 c 132,-1,4
 1797 1290 1797 1290 1859.5 1183 c 132,-1,5
 1922 1076 1922 1076 1956 953.5 c 132,-1,6
 1990 831 1990 831 1990 698 c 260,7,8
 1990 565 1990 565 1956 442.5 c 132,-1,9
 1922 320 1922 320 1859.5 213 c 132,-1,10
 1797 106 1797 106 1709.5 18.5 c 132,-1,11
 1622 -69 1622 -69 1515 -131.5 c 132,-1,12
 1408 -194 1408 -194 1285.5 -228 c 132,-1,13
 1163 -262 1163 -262 1030 -262 c 260,14,15
 897 -262 897 -262 774.5 -228 c 132,-1,16
 652 -194 652 -194 545 -131.5 c 132,-1,17
 438 -69 438 -69 350.5 18.5 c 132,-1,18
 263 106 263 106 200.5 213 c 132,-1,19
 138 320 138 320 104 442.5 c 132,-1,20
 70 565 70 565 70 698 c 260,21,22
 70 831 70 831 104 953.5 c 132,-1,23
 138 1076 138 1076 200.5 1183 c 132,-1,24
 263 1290 263 1290 350.5 1377.5 c 132,-1,25
 438 1465 438 1465 545 1527.5 c 132,-1,26
 652 1590 652 1590 774.5 1624 c 132,-1,27
 897 1658 897 1658 1030 1658 c 260,0,1
1030 -134 m 260,28,29
 1145 -134 1145 -134 1251 -104 c 132,-1,30
 1357 -74 1357 -74 1449.5 -20 c 132,-1,31
 1542 34 1542 34 1618 110 c 132,-1,32
 1694 186 1694 186 1748 278.5 c 132,-1,33
 1802 371 1802 371 1832 477 c 132,-1,34
 1862 583 1862 583 1862 698 c 260,35,36
 1862 813 1862 813 1832 919 c 132,-1,37
 1802 1025 1802 1025 1748 1117.5 c 132,-1,38
 1694 1210 1694 1210 1618 1286 c 132,-1,39
 1542 1362 1542 1362 1449.5 1416 c 132,-1,40
 1357 1470 1357 1470 1251 1500 c 132,-1,41
 1145 1530 1145 1530 1030 1530 c 260,42,43
 915 1530 915 1530 809 1500 c 132,-1,44
 703 1470 703 1470 610.5 1416 c 132,-1,45
 518 1362 518 1362 442 1286 c 132,-1,46
 366 1210 366 1210 312 1117.5 c 132,-1,47
 258 1025 258 1025 228 919 c 132,-1,48
 198 813 198 813 198 698 c 260,49,50
 198 583 198 583 228 477 c 132,-1,51
 258 371 258 371 312 278.5 c 132,-1,52
 366 186 366 186 442 110 c 132,-1,53
 518 34 518 34 610.5 -20 c 132,-1,54
 703 -74 703 -74 809 -104 c 132,-1,55
 915 -134 915 -134 1030 -134 c 260,28,29
797 762 m 5,56,-1
 1478 762 l 5,57,-1
 1478 634 l 5,58,-1
 797 634 l 5,59,-1
 1075 360 l 5,60,-1
 985 268 l 5,61,-1
 551 698 l 5,62,-1
 985 1128 l 5,63,-1
 1075 1036 l 5,64,-1
 797 762 l 5,56,-1
EndSplineSet
EndChar
